{
  "asset": {
    "generator": "Δmension Mathematical Universe v1.0",
    "version": "2.0",
    "copyright": "© 2025 UUON Foundation - Phillip A. Ruiz III",
    "extras": {
      "dc:creator": "Phillip A. Ruiz III/UUON Foundation",
      "dc:title": "a_dna_helix Mathematical Model",
      "dc:date": "2025-10-30T16:14:11.816Z",
      "dc:type": "3D Model",
      "dc:format": "model/gltf+json",
      "dc:rights": "Creative Commons Attribution 4.0 International",
      "dc:description": "Parametric mathematical surface model generated using sacred geometry principles",
      "authoringTool": "Δmension Mathematical Universe v1.0",
      "shapeName": "a dna helix",
      "shapeType": "a_dna_helix",
      "creationDate": "2025-10-30T16:14:11.816Z",
      "modificationDate": "2025-10-30T16:14:11.816Z",
      "upAxis": "Y",
      "units": "meters",
      "coordinateSystem": "right-handed",
      "topology": {
        "vertexCount": 8385,
        "faceCount": 16384,
        "edgeCount": 24767,
        "manifoldStatus": true,
        "watertight": true
      },
      "quality": {
        "meshResolution": "high",
        "triangulation": "delaunay",
        "normalQuality": "computed",
        "uvMappingQuality": 1
      },
      "polygonAnalysis": {
        "vertexCount": 8385,
        "triangleCount": 16384,
        "hasNormals": true,
        "hasUVs": true,
        "manifold": true,
        "watertight": true,
        "boundingBox": {
          "min": [
            -1.888343334197998,
            -1.8942267894744873,
            -27.256196975708008
          ],
          "max": [
            1.8913531303405762,
            1.8921818733215332,
            -10.207963943481445
          ],
          "center": [
            0.0015048980712890625,
            -0.0010224580764770508,
            -18.732080459594727
          ],
          "size": [
            3.779696464538574,
            3.7864086627960205,
            17.048233032226562
          ]
        }
      },
      "mathematicalParameters": {
        "a": 1.2,
        "b": 2.8,
        "c": 1,
        "d": 0,
        "e": 3,
        "f": 0,
        "g": 0,
        "h": 0,
        "i": 0,
        "j": 0,
        "k": 0,
        "l": 0,
        "m": 0,
        "n": 0,
        "o": 0,
        "p": 0,
        "q": 0,
        "r": 0,
        "s": 0,
        "t": 0,
        "u": 0,
        "v": 0,
        "w": 0,
        "uRange": [
          -1.24,
          -3.22
        ],
        "vRange": [
          -50,
          50
        ],
        "segments": [
          128,
          64
        ]
      },
      "industryStandards": {
        "gltfCompliant": true,
        "pbrMaterialCompliant": true,
        "dcmiCompliant": true,
        "webGL2Compatible": true,
        "realTimeRendering": true
      }
    }
  },
  "scenes": [
    {
      "nodes": [
        0
      ]
    }
  ],
  "scene": 0,
  "nodes": [
    {
      "name": "a_dna_helix_solid",
      "mesh": 0
    }
  ],
  "bufferViews": [
    {
      "buffer": 0,
      "byteOffset": 0,
      "byteLength": 100620,
      "target": 34962,
      "byteStride": 12
    },
    {
      "buffer": 0,
      "byteOffset": 100620,
      "byteLength": 100620,
      "target": 34962,
      "byteStride": 12
    },
    {
      "buffer": 0,
      "byteOffset": 201240,
      "byteLength": 67080,
      "target": 34962,
      "byteStride": 8
    },
    {
      "buffer": 0,
      "byteOffset": 268320,
      "byteLength": 134160,
      "target": 34962,
      "byteStride": 16
    },
    {
      "buffer": 0,
      "byteOffset": 402480,
      "byteLength": 98304,
      "target": 34963
    }
  ],
  "buffers": [
    {
      "byteLength": 500784,
      "uri": "data:application/octet-stream;base64,"
    }
  ],
  "accessors": [
    {
      "bufferView": 0,
      "componentType": 5126,
      "count": 8385,
      "max": [
        1.8913531303405762,
        1.8921818733215332,
        -10.207963943481445
      ],
      "min": [
        -1.888343334197998,
        -1.8942267894744873,
        -27.256196975708008
      ],
      "type": "VEC3"
    },
    {
      "bufferView": 1,
      "componentType": 5126,
      "count": 8385,
      "max": [
        0.8920063972473145,
        0.8837500214576721,
        0.9630240797996521
      ],
      "min": [
        -0.9903953075408936,
        -0.8885934948921204,
        -0.9628922939300537
      ],
      "type": "VEC3"
    },
    {
      "bufferView": 2,
      "componentType": 5126,
      "count": 8385,
      "max": [
        0.9900000095367432,
        0.8299999833106995
      ],
      "min": [
        0,
        0
      ],
      "type": "VEC2"
    },
    {
      "bufferView": 3,
      "componentType": 5126,
      "count": 8385,
      "max": [
        0.9997936487197876,
        0.9993045926094055,
        0.5744839310646057,
        1
      ],
      "min": [
        -0.9984991550445557,
        -0.9992742538452148,
        -0.4616893231868744,
        -1
      ],
      "type": "VEC4"
    },
    {
      "bufferView": 4,
      "componentType": 5123,
      "count": 49152,
      "max": [
        8384
      ],
      "min": [
        0
      ],
      "type": "SCALAR"
    }
  ],
  "materials": [
    {
      "pbrMetallicRoughness": {
        "baseColorFactor": [
          0,
          1,
          0,
          1
        ],
        "metallicFactor": 0.2,
        "roughnessFactor": 0.3
      },
      "doubleSided": true,
      "extensions": {
        "KHR_materials_ior": {
          "ior": 1.4999999999999998
        },
        "KHR_materials_clearcoat": {
          "clearcoatFactor": 0.6,
          "clearcoatRoughnessFactor": 0.2
        }
      }
    }
  ],
  "meshes": [
    {
      "primitives": [
        {
          "mode": 4,
          "attributes": {
            "POSITION": 0,
            "NORMAL": 1,
            "TEXCOORD_0": 2,
            "TANGENT": 3
          },
          "indices": 4,
          "material": 0
        }
      ]
    }
  ],
  "extensionsUsed": [
    "KHR_materials_ior",
    "KHR_materials_clearcoat"
  ]
}