{
  "asset": {
    "generator": "Δmension Mathematical Universe v1.0",
    "version": "2.0",
    "copyright": "© 2025 UUON Foundation - Phillip A. Ruiz III",
    "extras": {
      "dc:creator": "Phillip A. Ruiz III/UUON Foundation",
      "dc:title": "acoustic_pressure_001 Mathematical Model",
      "dc:date": "2025-10-30T15:28:08.090Z",
      "dc:type": "3D Model",
      "dc:format": "model/gltf+json",
      "dc:rights": "Creative Commons Attribution 4.0 International",
      "dc:description": "Parametric mathematical surface model generated using sacred geometry principles",
      "authoringTool": "Δmension Mathematical Universe v1.0",
      "shapeName": "acoustic pressure 001",
      "shapeType": "acoustic_pressure_001",
      "creationDate": "2025-10-30T15:28:08.090Z",
      "modificationDate": "2025-10-30T15:28:08.090Z",
      "upAxis": "Y",
      "units": "meters",
      "coordinateSystem": "right-handed",
      "topology": {
        "vertexCount": 4225,
        "faceCount": 8192,
        "edgeCount": 12415,
        "manifoldStatus": true,
        "watertight": true
      },
      "quality": {
        "meshResolution": "high",
        "triangulation": "delaunay",
        "normalQuality": "computed",
        "uvMappingQuality": 1
      },
      "polygonAnalysis": {
        "vertexCount": 4225,
        "triangleCount": 8192,
        "hasNormals": true,
        "hasUVs": true,
        "manifold": true,
        "watertight": true,
        "boundingBox": {
          "min": [
            -4.954280853271484,
            -4.954280853271484,
            -0.5085901618003845
          ],
          "max": [
            4.97178840637207,
            4.954280853271484,
            0.5161150097846985
          ],
          "center": [
            0.008753776550292969,
            0,
            0.0037624239921569824
          ],
          "size": [
            9.926069259643555,
            9.908561706542969,
            1.024705171585083
          ]
        }
      },
      "mathematicalParameters": {
        "a": 1,
        "b": 1,
        "c": 1,
        "d": 0,
        "e": 0.16591981648937681,
        "f": 1.1521019816793308,
        "g": -0.18699683661329958,
        "h": 1,
        "i": 0,
        "j": 0,
        "k": 0,
        "l": 0,
        "m": 0,
        "n": 0,
        "o": 0,
        "p": 0,
        "q": 0,
        "r": 0,
        "s": 0,
        "t": 0,
        "u": 0,
        "v": 0,
        "w": 0,
        "uRange": [
          0,
          1
        ],
        "vRange": [
          0,
          1
        ],
        "segments": [
          64,
          64
        ]
      },
      "industryStandards": {
        "gltfCompliant": true,
        "pbrMaterialCompliant": true,
        "dcmiCompliant": true,
        "webGL2Compatible": true,
        "realTimeRendering": true
      }
    }
  },
  "scenes": [
    {
      "nodes": [
        0
      ]
    }
  ],
  "scene": 0,
  "nodes": [
    {
      "name": "acoustic_pressure_001_solid",
      "mesh": 0
    }
  ],
  "bufferViews": [
    {
      "buffer": 0,
      "byteOffset": 0,
      "byteLength": 50700,
      "target": 34962,
      "byteStride": 12
    },
    {
      "buffer": 0,
      "byteOffset": 50700,
      "byteLength": 50700,
      "target": 34962,
      "byteStride": 12
    },
    {
      "buffer": 0,
      "byteOffset": 101400,
      "byteLength": 33800,
      "target": 34962,
      "byteStride": 8
    },
    {
      "buffer": 0,
      "byteOffset": 135200,
      "byteLength": 67600,
      "target": 34962,
      "byteStride": 16
    },
    {
      "buffer": 0,
      "byteOffset": 202800,
      "byteLength": 49152,
      "target": 34963
    }
  ],
  "buffers": [
    {
      "byteLength": 251952,
      "uri": "data:application/octet-stream;base64,"
    }
  ],
  "accessors": [
    {
      "bufferView": 0,
      "componentType": 5126,
      "count": 4225,
      "max": [
        4.97178840637207,
        4.954280853271484,
        0.5161150097846985
      ],
      "min": [
        -4.954280853271484,
        -4.954280853271484,
        -0.5085901618003845
      ],
      "type": "VEC3"
    },
    {
      "bufferView": 1,
      "componentType": 5126,
      "count": 4225,
      "max": [
        0.987334132194519,
        0.98736971616745,
        0.9999992847442627
      ],
      "min": [
        -0.9927538633346558,
        -0.987334132194519,
        0.11750728636980057
      ],
      "type": "VEC3"
    },
    {
      "bufferView": 2,
      "componentType": 5126,
      "count": 4225,
      "max": [
        0.9900000095367432,
        0.41999998688697815
      ],
      "min": [
        0,
        0
      ],
      "type": "VEC2"
    },
    {
      "bufferView": 3,
      "componentType": 5126,
      "count": 4225,
      "max": [
        0.8490667343139648,
        0.9999997615814209,
        0.9352032542228699,
        1
      ],
      "min": [
        -0.8349239826202393,
        -0.21135899424552917,
        -0.9370855689048767,
        -1
      ],
      "type": "VEC4"
    },
    {
      "bufferView": 4,
      "componentType": 5123,
      "count": 24576,
      "max": [
        4224
      ],
      "min": [
        0
      ],
      "type": "SCALAR"
    }
  ],
  "materials": [
    {
      "pbrMetallicRoughness": {
        "baseColorFactor": [
          0,
          1,
          0,
          1
        ],
        "metallicFactor": 0.2,
        "roughnessFactor": 0.3
      },
      "doubleSided": true,
      "extensions": {
        "KHR_materials_ior": {
          "ior": 1.4999999999999998
        },
        "KHR_materials_clearcoat": {
          "clearcoatFactor": 0.6,
          "clearcoatRoughnessFactor": 0.2
        }
      }
    }
  ],
  "meshes": [
    {
      "primitives": [
        {
          "mode": 4,
          "attributes": {
            "POSITION": 0,
            "NORMAL": 1,
            "TEXCOORD_0": 2,
            "TANGENT": 3
          },
          "indices": 4,
          "material": 0
        }
      ]
    }
  ],
  "extensionsUsed": [
    "KHR_materials_ior",
    "KHR_materials_clearcoat"
  ]
}