{
  "asset": {
    "generator": "Δmension Mathematical Universe v1.0",
    "version": "2.0",
    "copyright": "© 2025 UUON Foundation - Phillip A. Ruiz III",
    "extras": {
      "dc:creator": "Phillip A. Ruiz III/UUON Foundation",
      "dc:title": "ai_adam_optimizer Mathematical Model",
      "dc:date": "2025-10-21T17:36:05.158Z",
      "dc:type": "3D Model",
      "dc:format": "model/gltf+json",
      "dc:rights": "Creative Commons Attribution 4.0 International",
      "dc:description": "Parametric mathematical surface model generated using sacred geometry principles",
      "authoringTool": "Δmension Mathematical Universe v1.0",
      "shapeName": "ai adam optimizer",
      "shapeType": "ai_adam_optimizer",
      "creationDate": "2025-10-21T17:36:05.158Z",
      "modificationDate": "2025-10-21T17:36:05.158Z",
      "upAxis": "Y",
      "units": "meters",
      "coordinateSystem": "right-handed",
      "topology": {
        "vertexCount": 3510,
        "faceCount": 6784,
        "edgeCount": 10292,
        "manifoldStatus": true,
        "watertight": true
      },
      "quality": {
        "meshResolution": "high",
        "triangulation": "delaunay",
        "normalQuality": "computed",
        "uvMappingQuality": 1
      },
      "polygonAnalysis": {
        "vertexCount": 3510,
        "triangleCount": 6784,
        "hasNormals": true,
        "hasUVs": true,
        "manifold": true,
        "watertight": true,
        "boundingBox": {
          "min": [
            -1.9521523714065552,
            -1.9547280073165894,
            -0.17999683320522308
          ],
          "max": [
            1.9555869102478027,
            1.9547280073165894,
            1
          ],
          "center": [
            0.0017172694206237793,
            0,
            0.41000158339738846
          ],
          "size": [
            3.907739281654358,
            3.9094560146331787,
            1.179996833205223
          ]
        }
      },
      "mathematicalParameters": {
        "a": 2,
        "b": 2,
        "c": 1,
        "d": 1,
        "e": 0,
        "f": 0,
        "g": 0,
        "h": 0,
        "i": 0,
        "j": 0,
        "k": 0,
        "l": -18.67089,
        "m": 0,
        "n": 0,
        "o": 0,
        "p": 0,
        "q": 0,
        "r": 0,
        "s": 0,
        "t": 0,
        "u": 0,
        "v": 0,
        "w": 0,
        "uRange": [
          -10,
          10
        ],
        "vRange": [
          -10,
          10
        ],
        "segments": [
          64,
          53
        ]
      },
      "industryStandards": {
        "gltfCompliant": true,
        "pbrMaterialCompliant": true,
        "dcmiCompliant": true,
        "webGL2Compatible": true,
        "realTimeRendering": true
      }
    }
  },
  "scenes": [
    {
      "nodes": [
        0
      ]
    }
  ],
  "scene": 0,
  "nodes": [
    {
      "name": "ai_adam_optimizer_solid",
      "mesh": 0
    }
  ],
  "bufferViews": [
    {
      "buffer": 0,
      "byteOffset": 0,
      "byteLength": 42120,
      "target": 34962,
      "byteStride": 12
    },
    {
      "buffer": 0,
      "byteOffset": 42120,
      "byteLength": 42120,
      "target": 34962,
      "byteStride": 12
    },
    {
      "buffer": 0,
      "byteOffset": 84240,
      "byteLength": 28080,
      "target": 34962,
      "byteStride": 8
    },
    {
      "buffer": 0,
      "byteOffset": 112320,
      "byteLength": 56160,
      "target": 34962,
      "byteStride": 16
    },
    {
      "buffer": 0,
      "byteOffset": 168480,
      "byteLength": 40704,
      "target": 34963
    }
  ],
  "buffers": [
    {
      "byteLength": 209184,
      "uri": "data:application/octet-stream;base64,"
    }
  ],
  "accessors": [
    {
      "bufferView": 0,
      "componentType": 5126,
      "count": 3510,
      "max": [
        1.9555869102478027,
        1.9547280073165894,
        1
      ],
      "min": [
        -1.9521523714065552,
        -1.9547280073165894,
        -0.17999683320522308
      ],
      "type": "VEC3"
    },
    {
      "bufferView": 1,
      "componentType": 5126,
      "count": 3510,
      "max": [
        1,
        0.9982439875602722,
        0.9643023610115051
      ],
      "min": [
        -0.9998125433921814,
        -0.9988885521888733,
        -0.9917107224464417
      ],
      "type": "VEC3"
    },
    {
      "bufferView": 2,
      "componentType": 5126,
      "count": 3510,
      "max": [
        0.9900000095367432,
        0.3499999940395355
      ],
      "min": [
        0,
        0
      ],
      "type": "VEC2"
    },
    {
      "bufferView": 3,
      "componentType": 5126,
      "count": 3510,
      "max": [
        0.9999802112579346,
        0.9999461770057678,
        0.9397732615470886,
        1
      ],
      "min": [
        -0.9999802112579346,
        -0.9996139407157898,
        -0.8758505582809448,
        -1
      ],
      "type": "VEC4"
    },
    {
      "bufferView": 4,
      "componentType": 5123,
      "count": 20352,
      "max": [
        3509
      ],
      "min": [
        0
      ],
      "type": "SCALAR"
    }
  ],
  "materials": [
    {
      "pbrMetallicRoughness": {
        "baseColorFactor": [
          0,
          1,
          0,
          1
        ],
        "metallicFactor": 0.2,
        "roughnessFactor": 0.3
      },
      "doubleSided": true,
      "extensions": {
        "KHR_materials_ior": {
          "ior": 1.4999999999999998
        },
        "KHR_materials_clearcoat": {
          "clearcoatFactor": 0.6,
          "clearcoatRoughnessFactor": 0.2
        }
      }
    }
  ],
  "meshes": [
    {
      "primitives": [
        {
          "mode": 4,
          "attributes": {
            "POSITION": 0,
            "NORMAL": 1,
            "TEXCOORD_0": 2,
            "TANGENT": 3
          },
          "indices": 4,
          "material": 0
        }
      ]
    }
  ],
  "extensionsUsed": [
    "KHR_materials_ior",
    "KHR_materials_clearcoat"
  ]
}