{
  "asset": {
    "generator": "Δmension Mathematical Universe v1.0",
    "version": "2.0",
    "copyright": "© 2025 UUON Foundation - Phillip A. Ruiz III",
    "extras": {
      "dc:creator": "Phillip A. Ruiz III/UUON Foundation",
      "dc:title": "ai_gan_adversarial Mathematical Model",
      "dc:date": "2025-10-22T09:30:02.814Z",
      "dc:type": "3D Model",
      "dc:format": "model/gltf+json",
      "dc:rights": "Creative Commons Attribution 4.0 International",
      "dc:description": "Parametric mathematical surface model generated using sacred geometry principles",
      "authoringTool": "Δmension Mathematical Universe v1.0",
      "shapeName": "ai gan adversarial",
      "shapeType": "ai_gan_adversarial",
      "creationDate": "2025-10-22T09:30:02.814Z",
      "modificationDate": "2025-10-22T09:30:02.814Z",
      "upAxis": "Y",
      "units": "meters",
      "coordinateSystem": "right-handed",
      "topology": {
        "vertexCount": 2910,
        "faceCount": 5568,
        "edgeCount": 8476,
        "manifoldStatus": true,
        "watertight": true
      },
      "quality": {
        "meshResolution": "high",
        "triangulation": "delaunay",
        "normalQuality": "computed",
        "uvMappingQuality": 1
      },
      "polygonAnalysis": {
        "vertexCount": 2910,
        "triangleCount": 5568,
        "hasNormals": true,
        "hasUVs": true,
        "manifold": true,
        "watertight": true,
        "boundingBox": {
          "min": [
            -1.6011191606521606,
            -1.6011191606521606,
            -0.14683066308498383
          ],
          "max": [
            1.6011191606521606,
            1.6011191606521606,
            4.423964500427246
          ],
          "center": [
            0,
            0,
            2.138566918671131
          ],
          "size": [
            3.2022383213043213,
            3.2022383213043213,
            4.57079516351223
          ]
        }
      },
      "mathematicalParameters": {
        "a": 1.6011191719979148,
        "b": 1.8073985648399544,
        "c": 1.0533464526244276,
        "d": 1,
        "e": 0,
        "f": 0,
        "g": 0,
        "h": 0,
        "i": 0,
        "j": 0,
        "k": 0,
        "l": -9.96835,
        "m": 0,
        "n": 0,
        "o": 0,
        "p": 0,
        "q": 0,
        "r": 0,
        "s": 0,
        "t": 0,
        "u": 0,
        "v": 0,
        "w": 0,
        "uRange": [
          -10,
          10
        ],
        "vRange": [
          -10,
          10
        ],
        "segments": [
          96,
          29
        ]
      },
      "industryStandards": {
        "gltfCompliant": true,
        "pbrMaterialCompliant": true,
        "dcmiCompliant": true,
        "webGL2Compatible": true,
        "realTimeRendering": true
      }
    }
  },
  "scenes": [
    {
      "nodes": [
        0
      ]
    }
  ],
  "scene": 0,
  "nodes": [
    {
      "name": "ai_gan_adversarial_solid",
      "mesh": 0
    }
  ],
  "bufferViews": [
    {
      "buffer": 0,
      "byteOffset": 0,
      "byteLength": 34920,
      "target": 34962,
      "byteStride": 12
    },
    {
      "buffer": 0,
      "byteOffset": 34920,
      "byteLength": 34920,
      "target": 34962,
      "byteStride": 12
    },
    {
      "buffer": 0,
      "byteOffset": 69840,
      "byteLength": 23280,
      "target": 34962,
      "byteStride": 8
    },
    {
      "buffer": 0,
      "byteOffset": 93120,
      "byteLength": 46560,
      "target": 34962,
      "byteStride": 16
    },
    {
      "buffer": 0,
      "byteOffset": 139680,
      "byteLength": 33408,
      "target": 34963
    }
  ],
  "buffers": [
    {
      "byteLength": 173088,
      "uri": "data:application/octet-stream;base64,"
    }
  ],
  "accessors": [
    {
      "bufferView": 0,
      "componentType": 5126,
      "count": 2910,
      "max": [
        1.6011191606521606,
        1.6011191606521606,
        4.423964500427246
      ],
      "min": [
        -1.6011191606521606,
        -1.6011191606521606,
        -0.14683066308498383
      ],
      "type": "VEC3"
    },
    {
      "bufferView": 1,
      "componentType": 5126,
      "count": 2910,
      "max": [
        1,
        0.9999985694885254,
        0.82359379529953
      ],
      "min": [
        -0.9999985694885254,
        -0.9999985694885254,
        -0.8235937356948853
      ],
      "type": "VEC3"
    },
    {
      "bufferView": 2,
      "componentType": 5126,
      "count": 2910,
      "max": [
        0.9900000095367432,
        0.28999999165534973
      ],
      "min": [
        0,
        0
      ],
      "type": "VEC2"
    },
    {
      "bufferView": 3,
      "componentType": 5126,
      "count": 2910,
      "max": [
        0.7073652744293213,
        0.8095996379852295,
        1,
        1
      ],
      "min": [
        -0.6586522459983826,
        -0.8095996379852295,
        -1,
        -1
      ],
      "type": "VEC4"
    },
    {
      "bufferView": 4,
      "componentType": 5123,
      "count": 16704,
      "max": [
        2909
      ],
      "min": [
        0
      ],
      "type": "SCALAR"
    }
  ],
  "materials": [
    {
      "pbrMetallicRoughness": {
        "baseColorFactor": [
          0,
          1,
          0,
          1
        ],
        "metallicFactor": 0.2,
        "roughnessFactor": 0.3
      },
      "doubleSided": true,
      "extensions": {
        "KHR_materials_ior": {
          "ior": 1.4999999999999998
        },
        "KHR_materials_clearcoat": {
          "clearcoatFactor": 0.6,
          "clearcoatRoughnessFactor": 0.2
        }
      }
    }
  ],
  "meshes": [
    {
      "primitives": [
        {
          "mode": 4,
          "attributes": {
            "POSITION": 0,
            "NORMAL": 1,
            "TEXCOORD_0": 2,
            "TANGENT": 3
          },
          "indices": 4,
          "material": 0
        }
      ]
    }
  ],
  "extensionsUsed": [
    "KHR_materials_ior",
    "KHR_materials_clearcoat"
  ]
}