{
  "asset": {
    "generator": "Δmension Mathematical Universe v1.0",
    "version": "2.0",
    "copyright": "© 2025 UUON Foundation - Phillip A. Ruiz III",
    "extras": {
      "dc:creator": "Phillip A. Ruiz III/UUON Foundation",
      "dc:title": "ai_transformer_attention Mathematical Model",
      "dc:date": "2025-10-21T20:18:29.007Z",
      "dc:type": "3D Model",
      "dc:format": "model/gltf+json",
      "dc:rights": "Creative Commons Attribution 4.0 International",
      "dc:description": "Parametric mathematical surface model generated using sacred geometry principles",
      "authoringTool": "Δmension Mathematical Universe v1.0",
      "shapeName": "ai transformer attention",
      "shapeType": "ai_transformer_attention",
      "creationDate": "2025-10-21T20:18:29.007Z",
      "modificationDate": "2025-10-21T20:18:29.007Z",
      "upAxis": "Y",
      "units": "meters",
      "coordinateSystem": "right-handed",
      "topology": {
        "vertexCount": 27556,
        "faceCount": 54450,
        "edgeCount": 82004,
        "manifoldStatus": true,
        "watertight": true
      },
      "quality": {
        "meshResolution": "high",
        "triangulation": "delaunay",
        "normalQuality": "computed",
        "uvMappingQuality": 1
      },
      "polygonAnalysis": {
        "vertexCount": 27556,
        "triangleCount": 54450,
        "hasNormals": true,
        "hasUVs": true,
        "manifold": true,
        "watertight": true,
        "boundingBox": {
          "min": [
            -0.6012664437294006,
            -0.6030383706092834,
            -0.06101981922984123
          ],
          "max": [
            0.6028283834457397,
            0.5997251868247986,
            0.06038932129740715
          ],
          "center": [
            0.0007809698581695557,
            -0.0016565918922424316,
            -0.000315248966217041
          ],
          "size": [
            1.2040948271751404,
            1.202763557434082,
            0.12140914052724838
          ]
        }
      },
      "mathematicalParameters": {
        "a": 1.725414686237433,
        "b": 1.725414686237433,
        "c": 0.8627073431187166,
        "d": 1,
        "e": 0,
        "f": 0,
        "g": 0,
        "h": 0,
        "i": 0,
        "j": 0,
        "k": 0,
        "l": 0,
        "m": 0,
        "n": 0,
        "o": 0,
        "p": 0,
        "q": 0,
        "r": 0,
        "s": 0,
        "t": 0,
        "u": 0,
        "v": 0,
        "w": 0,
        "uRange": [
          -34.75,
          10
        ],
        "vRange": [
          -10,
          10
        ],
        "segments": [
          165,
          165
        ]
      },
      "industryStandards": {
        "gltfCompliant": true,
        "pbrMaterialCompliant": true,
        "dcmiCompliant": true,
        "webGL2Compatible": true,
        "realTimeRendering": true
      }
    }
  },
  "scenes": [
    {
      "nodes": [
        0
      ]
    }
  ],
  "scene": 0,
  "nodes": [
    {
      "name": "ai_transformer_attention_solid",
      "mesh": 0
    }
  ],
  "bufferViews": [
    {
      "buffer": 0,
      "byteOffset": 0,
      "byteLength": 330672,
      "target": 34962,
      "byteStride": 12
    },
    {
      "buffer": 0,
      "byteOffset": 330672,
      "byteLength": 330672,
      "target": 34962,
      "byteStride": 12
    },
    {
      "buffer": 0,
      "byteOffset": 661344,
      "byteLength": 220448,
      "target": 34962,
      "byteStride": 8
    },
    {
      "buffer": 0,
      "byteOffset": 881792,
      "byteLength": 440896,
      "target": 34962,
      "byteStride": 16
    },
    {
      "buffer": 0,
      "byteOffset": 1322688,
      "byteLength": 326700,
      "target": 34963
    }
  ],
  "buffers": [
    {
      "byteLength": 1649388,
      "uri": "data:application/octet-stream;base64,"
    }
  ],
  "accessors": [
    {
      "bufferView": 0,
      "componentType": 5126,
      "count": 27556,
      "max": [
        0.6028283834457397,
        0.5997251868247986,
        0.06038932129740715
      ],
      "min": [
        -0.6012664437294006,
        -0.6030383706092834,
        -0.06101981922984123
      ],
      "type": "VEC3"
    },
    {
      "bufferView": 1,
      "componentType": 5126,
      "count": 27556,
      "max": [
        0.9998652935028076,
        0.9999594688415527,
        0.1704428791999817
      ],
      "min": [
        -0.999954342842102,
        -0.999936580657959,
        -0.1694883406162262
      ],
      "type": "VEC3"
    },
    {
      "bufferView": 2,
      "componentType": 5126,
      "count": 27556,
      "max": [
        0.9900000095367432,
        2.75
      ],
      "min": [
        0,
        0
      ],
      "type": "VEC2"
    },
    {
      "bufferView": 3,
      "componentType": 5126,
      "count": 27556,
      "max": [
        0.9690951108932495,
        0.9036956429481506,
        0.9999726414680481,
        1
      ],
      "min": [
        -0.9303783178329468,
        -0.9479002952575684,
        -0.9998385310173035,
        -1
      ],
      "type": "VEC4"
    },
    {
      "bufferView": 4,
      "componentType": 5123,
      "count": 163350,
      "max": [
        27555
      ],
      "min": [
        0
      ],
      "type": "SCALAR"
    }
  ],
  "materials": [
    {
      "pbrMetallicRoughness": {
        "baseColorFactor": [
          0,
          1,
          0,
          1
        ],
        "metallicFactor": 0.2,
        "roughnessFactor": 0.3
      },
      "doubleSided": true,
      "extensions": {
        "KHR_materials_ior": {
          "ior": 1.4999999999999998
        },
        "KHR_materials_clearcoat": {
          "clearcoatFactor": 0.6,
          "clearcoatRoughnessFactor": 0.2
        }
      }
    }
  ],
  "meshes": [
    {
      "primitives": [
        {
          "mode": 4,
          "attributes": {
            "POSITION": 0,
            "NORMAL": 1,
            "TEXCOORD_0": 2,
            "TANGENT": 3
          },
          "indices": 4,
          "material": 0
        }
      ]
    }
  ],
  "extensionsUsed": [
    "KHR_materials_ior",
    "KHR_materials_clearcoat"
  ]
}