{
  "asset": {
    "generator": "Δmension Mathematical Universe v1.0 - UUON Foundation",
    "version": "2.0",
    "copyright": "© 2025 UUON Foundation - Phillip A. Ruiz III - Hash: 5DA99FEE",
    "extras": {
      "dc:creator": "Phillip A. Ruiz III/UUON Foundation",
      "dc:title": "vascular_network Mathematical Model",
      "dc:date": "2025-10-11T17:58:01.031Z",
      "dc:type": "3D Model",
      "dc:format": "model/gltf+json",
      "dc:rights": "Creative Commons Attribution 4.0 International",
      "dc:description": "Parametric mathematical surface model generated using sacred geometry principles",
      "authoringTool": "Δmension Mathematical Universe v1.0",
      "shapeName": "vascular network",
      "shapeType": "vascular_network",
      "creationDate": "2025-10-11T17:58:01.031Z",
      "modificationDate": "2025-10-11T17:58:01.031Z",
      "upAxis": "Y",
      "units": "meters",
      "coordinateSystem": "right-handed",
      "topology": {
        "vertexCount": 10201,
        "faceCount": 20000,
        "edgeCount": 30199,
        "manifoldStatus": true,
        "watertight": true
      },
      "quality": {
        "meshResolution": "high",
        "triangulation": "delaunay",
        "normalQuality": "computed",
        "uvMappingQuality": 1
      },
      "polygonAnalysis": {
        "vertexCount": 10201,
        "triangleCount": 20000,
        "hasNormals": true,
        "hasUVs": true,
        "manifold": true,
        "watertight": true,
        "boundingBox": {
          "min": [
            -0.041714273393154144,
            -0.2998252511024475,
            -0.504563570022583
          ],
          "max": [
            2.970804214477539,
            0.39694175124168396,
            0.2969816029071808
          ],
          "center": [
            1.4645449705421925,
            0.048558250069618225,
            -0.10379098355770111
          ],
          "size": [
            3.012518487870693,
            0.6967670023441315,
            0.8015451729297638
          ]
        }
      },
      "authentication": {
        "uuon_authentication": {
          "creator": "Phillip Aguilar Ruiz III",
          "organization": "UUO8 F\u0007undation Inc",
          "domain": "www.uuonfoundation.com",
          "contact": "phi1@uuonfoundation.com",
          "model_name": "vascular_network",
          "export_timestamp": "2025-10-11T17:58:01.031Z",
          "authentication_hash": "71DDAD2",
          "watermark_signature": "UUON_PROTECTED_1760205481031",
          "integrity_check": "VALID",
          "copyright_notice": "© UUON Foundation Inc. All Rights Reserved.",
          "license": "Protected by steganographic watermarking system",
          "tamper_warning": "Modifying authentication data is prohibited and may result in legal action"
        }
      },
      "uuonFoundationSeal": {
        "creator": "Phillip Aguilar Ruiz III",
        "organization": "UUO8 F\u0007undation Inc",
        "authenticationHash": "5DA99FEE",
        "exportTimestamp": "2025-10-11T17:58:01.031Z",
        "securityLevel": 7,
        "copyrightNotice": "© 2025 UUON Foundation Inc. All Rights Reserved.",
        "tamperProtection": "This model is protected by steganographic watermarking",
        "integrityVerification": "UUON_AUTHENTICATED_1760205481031"
      },
      "mathematicalParameters": {
        "a": 3,
        "b": 0.3,
        "c": 0.1,
        "d": 0.4,
        "e": 1,
        "f": 8,
        "g": 0,
        "h": 0,
        "i": 0,
        "j": 0,
        "k": 0,
        "l": 0,
        "m": 1,
        "n": 0,
        "o": 0,
        "p": 0,
        "q": 0,
        "r": 0,
        "s": 0,
        "t": 0,
        "u": 0,
        "v": 0,
        "w": 0,
        "uRange": [
          0,
          1
        ],
        "vRange": [
          0,
          6.283185307179586
        ],
        "segments": [
          500,
          500
        ]
      },
      "industryStandards": {
        "gltfCompliant": true,
        "pbrMaterialCompliant": true,
        "dcmiCompliant": true,
        "webGL2Compatible": true,
        "realTimeRendering": true
      },
      "creator": "Phillip Aguilar Ruiz III",
      "organization": "UUO8 F\u0007undation Inc",
      "authenticationHash": "5DA99FEE",
      "specializedProducts": "Therapeutic Sacred Geometry & Mathematical Healing Surfaces for PTSD Recovery",
      "revolutionaryFeatures": "24-Sector Directional Parameter Control System & 4D Stereographic Projections",
      "domain": "www.uuonfoundation.com",
      "contact": "phi1@uuonfoundation.com"
    }
  },
  "scenes": [
    {
      "nodes": [
        0
      ]
    }
  ],
  "scene": 0,
  "nodes": [
    {
      "name": "vascular_network_solid",
      "mesh": 0
    }
  ],
  "bufferViews": [
    {
      "buffer": 0,
      "byteOffset": 0,
      "byteLength": 122412,
      "target": 34962,
      "byteStride": 12
    },
    {
      "buffer": 0,
      "byteOffset": 122412,
      "byteLength": 81608,
      "target": 34962,
      "byteStride": 8
    },
    {
      "buffer": 0,
      "byteOffset": 204020,
      "byteLength": 122412,
      "target": 34962,
      "byteStride": 12
    },
    {
      "buffer": 0,
      "byteOffset": 326432,
      "byteLength": 163216,
      "target": 34962,
      "byteStride": 16
    },
    {
      "buffer": 0,
      "byteOffset": 489648,
      "byteLength": 120000,
      "target": 34963
    }
  ],
  "buffers": [
    {
      "byteLength": 609648,
      "uri": "data:application/octet-stream;base64,"
    }
  ],
  "accessors": [
    {
      "bufferView": 0,
      "componentType": 5126,
      "count": 10201,
      "max": [
        2.970804214477539,
        0.39694175124168396,
        0.2969816029071808
      ],
      "min": [
        -0.041714273393154144,
        -0.2998252511024475,
        -0.504563570022583
      ],
      "type": "VEC3"
    },
    {
      "bufferView": 1,
      "componentType": 5126,
      "count": 10201,
      "max": [
        1,
        1
      ],
      "min": [
        0,
        0
      ],
      "type": "VEC2"
    },
    {
      "bufferView": 2,
      "componentType": 5126,
      "count": 10201,
      "max": [
        1,
        0.9994011521339417,
        0.9990130662918091
      ],
      "min": [
        -0.9273843765258789,
        -0.9986678957939148,
        -0.9954594969749451
      ],
      "type": "VEC3"
    },
    {
      "bufferView": 3,
      "componentType": 5126,
      "count": 10201,
      "max": [
        0.9999616146087646,
        0.8857735991477966,
        0.7807822823524475,
        1
      ],
      "min": [
        0.366649866104126,
        -0.8314907550811768,
        -0.9239959716796875,
        1
      ],
      "type": "VEC4"
    },
    {
      "bufferView": 4,
      "componentType": 5123,
      "count": 60000,
      "max": [
        10200
      ],
      "min": [
        0
      ],
      "type": "SCALAR"
    }
  ],
  "materials": [
    {
      "pbrMetallicRoughness": {
        "baseColorFactor": [
          0,
          1,
          0.24620132669705552,
          1
        ],
        "metallicFactor": 0.1,
        "roughnessFactor": 0.4
      },
      "doubleSided": true,
      "extensions": {
        "KHR_materials_ior": {
          "ior": 1.272727272727273
        },
        "KHR_materials_clearcoat": {
          "clearcoatFactor": 0.2,
          "clearcoatRoughnessFactor": 0
        }
      }
    }
  ],
  "meshes": [
    {
      "primitives": [
        {
          "mode": 4,
          "attributes": {
            "POSITION": 0,
            "TEXCOORD_0": 1,
            "NORMAL": 2,
            "TANGENT": 3
          },
          "extras": {
            "uuon_authentication": {
              "creator": "Phillip Aguilar Ruiz III",
              "organization": "UUO8 F\u0007undation Inc",
              "domain": "www.uuonfoundation.com",
              "contact": "phi1@uuonfoundation.com",
              "model_name": "vascular_network",
              "export_timestamp": "2025-10-11T17:58:01.014Z",
              "authentication_hash": "71DDB0D",
              "watermark_signature": "UUON_PROTECTED_1760205481014",
              "integrity_check": "VALID",
              "copyright_notice": "© UUON Foundation Inc. All Rights Reserved.",
              "license": "Protected by steganographic watermarking system",
              "tamper_warning": "Modifying authentication data is prohibited and may result in legal action"
            },
            "exportType": "solid",
            "exportTimestamp": "2025-10-11T17:58:01.014Z",
            "authenticationLevel": "MAXIMUM_SECURITY",
            "watermarkEmbedded": true,
            "geometryFingerprint": "5DA99FEE",
            "vertexCount": 10201,
            "copyrightNotice": "© UUON Foundation Inc. All Rights Reserved.",
            "createdBy": "Phillip Aguilar Ruiz III",
            "organization": "UUO8 F\u0007undation Inc",
            "contactInfo": "phi1@uuonfoundation.com",
            "socialMedia": {
              "instagram": "@uuon.foundation",
              "youtube": "https://www.youtube.com/channel/UC4sESexz8vYUW2WNZsYwOfQ",
              "cgtrader": "https://www.cgtrader.com/designers/uuon-foundation"
            },
            "tamperWarning": "Modifying authentication data is prohibited and may result in legal action"
          },
          "indices": 4,
          "material": 0
        }
      ]
    }
  ],
  "extensionsUsed": [
    "KHR_materials_ior",
    "KHR_materials_clearcoat"
  ]
}