{
  "asset": {
    "generator": "Δmension Mathematical Universe v1.0 - UUON Foundation",
    "version": "2.0",
    "copyright": "© 2025 UUON Foundation - Phillip A. Ruiz III - Hash: 294DCC3E",
    "extras": {
      "dc:creator": "Phillip A. Ruiz III/UUON Foundation",
      "dc:title": "vesica_piscis Mathematical Model",
      "dc:date": "2025-10-14T11:46:27.378Z",
      "dc:type": "3D Model",
      "dc:format": "model/gltf+json",
      "dc:rights": "Creative Commons Attribution 4.0 International",
      "dc:description": "Parametric mathematical surface model generated using sacred geometry principles",
      "authoringTool": "Δmension Mathematical Universe v1.0",
      "shapeName": "vesica piscis",
      "shapeType": "vesica_piscis",
      "creationDate": "2025-10-14T11:46:27.378Z",
      "modificationDate": "2025-10-14T11:46:27.378Z",
      "upAxis": "Y",
      "units": "meters",
      "coordinateSystem": "right-handed",
      "topology": {
        "vertexCount": 8383,
        "faceCount": 16400,
        "edgeCount": 24781,
        "manifoldStatus": true,
        "watertight": true
      },
      "quality": {
        "meshResolution": "high",
        "triangulation": "delaunay",
        "normalQuality": "computed",
        "uvMappingQuality": 1
      },
      "polygonAnalysis": {
        "vertexCount": 8383,
        "triangleCount": 16400,
        "hasNormals": true,
        "hasUVs": true,
        "manifold": true,
        "watertight": true,
        "boundingBox": {
          "min": [
            -0.25066882371902466,
            -0.19914643466472626,
            -0.1324034035205841
          ],
          "max": [
            0.2506379783153534,
            0.20212650299072266,
            0.13452433049678802
          ],
          "center": [
            -0.000015422701835632324,
            0.0014900341629981995,
            0.0010604634881019592
          ],
          "size": [
            0.501306802034378,
            0.4012729376554489,
            0.26692773401737213
          ]
        }
      },
      "authentication": {
        "uuon_authentication": {
          "creator": "Phillip Aguilar Ruiz III",
          "organization": "UUO8 F\u0007undation Inc",
          "domain": "www.uuonfoundation.com",
          "contact": "phi1@uuonfoundation.com",
          "model_name": "vesica_piscis",
          "export_timestamp": "2025-10-14T11:46:27.378Z",
          "authentication_hash": "208AF24A",
          "watermark_signature": "UUON_PROTECTED_1760442387378",
          "integrity_check": "VALID",
          "copyright_notice": "© UUON Foundation Inc. All Rights Reserved.",
          "license": "Protected by steganographic watermarking system",
          "tamper_warning": "Modifying authentication data is prohibited and may result in legal action"
        }
      },
      "uuonFoundationSeal": {
        "creator": "Phillip Aguilar Ruiz III",
        "organization": "UUO8 F\u0007undation Inc",
        "authenticationHash": "294DCC3E",
        "exportTimestamp": "2025-10-14T11:46:27.378Z",
        "securityLevel": 7,
        "copyrightNotice": "© 2025 UUON Foundation Inc. All Rights Reserved.",
        "tamperProtection": "This model is protected by steganographic watermarking",
        "integrityVerification": "UUON_AUTHENTICATED_1760442387378"
      },
      "mathematicalParameters": {
        "a": 1,
        "b": 1,
        "c": 0.5,
        "d": 0,
        "e": 0,
        "f": 2,
        "g": 1.414,
        "h": 0,
        "i": 0,
        "j": 0,
        "k": 0,
        "l": -2.42336,
        "m": -0.84541,
        "n": 0.26562,
        "o": -3.17555,
        "p": 0,
        "q": 2.6921,
        "r": 0,
        "s": 0,
        "t": 0,
        "u": 0,
        "v": 0,
        "w": 0,
        "uRange": [
          -9.546,
          1
        ],
        "vRange": [
          0,
          1
        ],
        "segments": [
          319,
          41
        ]
      },
      "industryStandards": {
        "gltfCompliant": true,
        "pbrMaterialCompliant": true,
        "dcmiCompliant": true,
        "webGL2Compatible": true,
        "realTimeRendering": true
      },
      "creator": "Phillip Aguilar Ruiz III",
      "organization": "UUO8 F\u0007undation Inc",
      "authenticationHash": "294DCC3E",
      "specializedProducts": "Therapeutic Sacred Geometry & Mathematical Healing Surfaces for PTSD Recovery",
      "revolutionaryFeatures": "24-Sector Directional Parameter Control System & 4D Stereographic Projections",
      "domain": "www.uuonfoundation.com",
      "contact": "phi1@uuonfoundation.com"
    }
  },
  "scenes": [
    {
      "nodes": [
        0
      ]
    }
  ],
  "scene": 0,
  "nodes": [
    {
      "name": "vesica_piscis_solid",
      "mesh": 0
    }
  ],
  "bufferViews": [
    {
      "buffer": 0,
      "byteOffset": 0,
      "byteLength": 100596,
      "target": 34962,
      "byteStride": 12
    },
    {
      "buffer": 0,
      "byteOffset": 100596,
      "byteLength": 67064,
      "target": 34962,
      "byteStride": 8
    },
    {
      "buffer": 0,
      "byteOffset": 167660,
      "byteLength": 100596,
      "target": 34962,
      "byteStride": 12
    },
    {
      "buffer": 0,
      "byteOffset": 268256,
      "byteLength": 134128,
      "target": 34962,
      "byteStride": 16
    },
    {
      "buffer": 0,
      "byteOffset": 402384,
      "byteLength": 98400,
      "target": 34963
    }
  ],
  "buffers": [
    {
      "byteLength": 500784,
      "uri": "data:application/octet-stream;base64,"
    }
  ],
  "accessors": [
    {
      "bufferView": 0,
      "componentType": 5126,
      "count": 8383,
      "max": [
        0.2506379783153534,
        0.20212650299072266,
        0.13452433049678802
      ],
      "min": [
        -0.25066882371902466,
        -0.19914643466472626,
        -0.1324034035205841
      ],
      "type": "VEC3"
    },
    {
      "bufferView": 1,
      "componentType": 5126,
      "count": 8383,
      "max": [
        1,
        1
      ],
      "min": [
        0,
        0
      ],
      "type": "VEC2"
    },
    {
      "bufferView": 2,
      "componentType": 5126,
      "count": 8383,
      "max": [
        0.9994434118270874,
        0.9990708827972412,
        0.9999210834503174
      ],
      "min": [
        -0.9993875622749329,
        -0.99996018409729,
        -0.9993646740913391
      ],
      "type": "VEC3"
    },
    {
      "bufferView": 3,
      "componentType": 5126,
      "count": 8383,
      "max": [
        0.9999993443489075,
        0.9998045563697815,
        0.7809468507766724,
        1
      ],
      "min": [
        -0.9998525977134705,
        -0.996712327003479,
        -0.7772444486618042,
        1
      ],
      "type": "VEC4"
    },
    {
      "bufferView": 4,
      "componentType": 5123,
      "count": 49200,
      "max": [
        8382
      ],
      "min": [
        0
      ],
      "type": "SCALAR"
    }
  ],
  "materials": [
    {
      "pbrMetallicRoughness": {
        "baseColorFactor": [
          0,
          1,
          0.24620132669705552,
          1
        ],
        "metallicFactor": 0.1,
        "roughnessFactor": 0.4
      },
      "doubleSided": true,
      "extensions": {
        "KHR_materials_ior": {
          "ior": 1.272727272727273
        },
        "KHR_materials_clearcoat": {
          "clearcoatFactor": 0.2,
          "clearcoatRoughnessFactor": 0
        }
      }
    }
  ],
  "meshes": [
    {
      "primitives": [
        {
          "mode": 4,
          "attributes": {
            "POSITION": 0,
            "TEXCOORD_0": 1,
            "NORMAL": 2,
            "TANGENT": 3
          },
          "extras": {
            "uuon_authentication": {
              "creator": "Phillip Aguilar Ruiz III",
              "organization": "UUO8 F\u0007undation Inc",
              "domain": "www.uuonfoundation.com",
              "contact": "phi1@uuonfoundation.com",
              "model_name": "vesica_piscis",
              "export_timestamp": "2025-10-14T11:46:27.364Z",
              "authentication_hash": "208AF227",
              "watermark_signature": "UUON_PROTECTED_1760442387364",
              "integrity_check": "VALID",
              "copyright_notice": "© UUON Foundation Inc. All Rights Reserved.",
              "license": "Protected by steganographic watermarking system",
              "tamper_warning": "Modifying authentication data is prohibited and may result in legal action"
            },
            "exportType": "solid",
            "exportTimestamp": "2025-10-14T11:46:27.364Z",
            "authenticationLevel": "MAXIMUM_SECURITY",
            "watermarkEmbedded": true,
            "geometryFingerprint": "294DCC3E",
            "vertexCount": 8383,
            "copyrightNotice": "© UUON Foundation Inc. All Rights Reserved.",
            "createdBy": "Phillip Aguilar Ruiz III",
            "organization": "UUO8 F\u0007undation Inc",
            "contactInfo": "phi1@uuonfoundation.com",
            "socialMedia": {
              "instagram": "@uuon.foundation",
              "youtube": "https://www.youtube.com/channel/UC4sESexz8vYUW2WNZsYwOfQ",
              "cgtrader": "https://www.cgtrader.com/designers/uuon-foundation"
            },
            "tamperWarning": "Modifying authentication data is prohibited and may result in legal action"
          },
          "indices": 4,
          "material": 0
        }
      ]
    }
  ],
  "extensionsUsed": [
    "KHR_materials_ior",
    "KHR_materials_clearcoat"
  ]
}