{
  "asset": {
    "generator": "Δmension Mathematical Universe v1.0",
    "version": "2.0",
    "copyright": "© 2025 UUON Foundation - Phillip A. Ruiz III",
    "extras": {
      "dc:creator": "Phillip A. Ruiz III/UUON Foundation",
      "dc:title": "voronoi_delaunay_surface Mathematical Model",
      "dc:date": "2025-10-30T12:28:56.764Z",
      "dc:type": "3D Model",
      "dc:format": "model/gltf+json",
      "dc:rights": "Creative Commons Attribution 4.0 International",
      "dc:description": "Parametric mathematical surface model generated using sacred geometry principles",
      "authoringTool": "Δmension Mathematical Universe v1.0",
      "shapeName": "voronoi delaunay surface",
      "shapeType": "voronoi_delaunay_surface",
      "creationDate": "2025-10-30T12:28:56.764Z",
      "modificationDate": "2025-10-30T12:28:56.764Z",
      "upAxis": "Y",
      "units": "meters",
      "coordinateSystem": "right-handed",
      "topology": {
        "vertexCount": 4225,
        "faceCount": 8192,
        "edgeCount": 12415,
        "manifoldStatus": true,
        "watertight": true
      },
      "quality": {
        "meshResolution": "high",
        "triangulation": "delaunay",
        "normalQuality": "computed",
        "uvMappingQuality": 1
      },
      "polygonAnalysis": {
        "vertexCount": 4225,
        "triangleCount": 8192,
        "hasNormals": true,
        "hasUVs": true,
        "manifold": true,
        "watertight": true,
        "boundingBox": {
          "min": [
            -1.7403029203414917,
            -2.070796251296997,
            0
          ],
          "max": [
            1.262406826019287,
            1.0707963705062866,
            0.1389084756374359
          ],
          "center": [
            -0.2389480471611023,
            -0.4999999403953552,
            0.06945423781871796
          ],
          "size": [
            3.002709746360779,
            3.1415926218032837,
            0.1389084756374359
          ]
        }
      },
      "mathematicalParameters": {
        "a": 1,
        "b": 1,
        "c": 1,
        "d": 1,
        "e": 0.2610519564879179,
        "f": -0.2748980999120204,
        "g": 0.15467546297387616,
        "h": 1,
        "i": 0,
        "j": 0,
        "k": 0,
        "l": 0,
        "m": 0,
        "n": 0,
        "o": 0,
        "p": 0,
        "q": 0,
        "r": 0,
        "s": 0,
        "t": 0,
        "u": 0,
        "v": 0,
        "w": 0,
        "uRange": [
          -3.141592653589793,
          3.141592653589793
        ],
        "vRange": [
          -1.5707963267948966,
          1.5707963267948966
        ],
        "segments": [
          64,
          64
        ]
      },
      "industryStandards": {
        "gltfCompliant": true,
        "pbrMaterialCompliant": true,
        "dcmiCompliant": true,
        "webGL2Compatible": true,
        "realTimeRendering": true
      }
    }
  },
  "scenes": [
    {
      "nodes": [
        0
      ]
    }
  ],
  "scene": 0,
  "nodes": [
    {
      "name": "voronoi_delaunay_surface_solid",
      "mesh": 0
    }
  ],
  "bufferViews": [
    {
      "buffer": 0,
      "byteOffset": 0,
      "byteLength": 50700,
      "target": 34962,
      "byteStride": 12
    },
    {
      "buffer": 0,
      "byteOffset": 50700,
      "byteLength": 50700,
      "target": 34962,
      "byteStride": 12
    },
    {
      "buffer": 0,
      "byteOffset": 101400,
      "byteLength": 33800,
      "target": 34962,
      "byteStride": 8
    },
    {
      "buffer": 0,
      "byteOffset": 135200,
      "byteLength": 67600,
      "target": 34962,
      "byteStride": 16
    },
    {
      "buffer": 0,
      "byteOffset": 202800,
      "byteLength": 49152,
      "target": 34963
    }
  ],
  "buffers": [
    {
      "byteLength": 251952,
      "uri": "data:application/octet-stream;base64,"
    }
  ],
  "accessors": [
    {
      "bufferView": 0,
      "componentType": 5126,
      "count": 4225,
      "max": [
        1.262406826019287,
        1.0707963705062866,
        0.1389084756374359
      ],
      "min": [
        -1.7403029203414917,
        -2.070796251296997,
        0
      ],
      "type": "VEC3"
    },
    {
      "bufferView": 1,
      "componentType": 5126,
      "count": 4225,
      "max": [
        0.834624171257019,
        0.7960433959960938,
        0.9989349246025085
      ],
      "min": [
        -0.687720000743866,
        -0.8052926659584045,
        0.416639119386673
      ],
      "type": "VEC3"
    },
    {
      "bufferView": 2,
      "componentType": 5126,
      "count": 4225,
      "max": [
        0.9900000095367432,
        0.41999998688697815
      ],
      "min": [
        0,
        0
      ],
      "type": "VEC2"
    },
    {
      "bufferView": 3,
      "componentType": 5126,
      "count": 4225,
      "max": [
        0.6779177784919739,
        0.9999996423721313,
        0.6008354425430298,
        1
      ],
      "min": [
        -0.1271182745695114,
        -0.7260726094245911,
        -0.7336273193359375,
        -1
      ],
      "type": "VEC4"
    },
    {
      "bufferView": 4,
      "componentType": 5123,
      "count": 24576,
      "max": [
        4224
      ],
      "min": [
        0
      ],
      "type": "SCALAR"
    }
  ],
  "materials": [
    {
      "pbrMetallicRoughness": {
        "baseColorFactor": [
          0.21586050010324417,
          0.21586050010324417,
          0.21586050010324417,
          1
        ],
        "metallicFactor": 0.2,
        "roughnessFactor": 0.3
      },
      "doubleSided": true,
      "extensions": {
        "KHR_materials_ior": {
          "ior": 1.4999999999999998
        },
        "KHR_materials_clearcoat": {
          "clearcoatFactor": 0.6,
          "clearcoatRoughnessFactor": 0.2
        }
      }
    }
  ],
  "meshes": [
    {
      "primitives": [
        {
          "mode": 4,
          "attributes": {
            "POSITION": 0,
            "NORMAL": 1,
            "TEXCOORD_0": 2,
            "TANGENT": 3
          },
          "indices": 4,
          "material": 0
        }
      ]
    }
  ],
  "extensionsUsed": [
    "KHR_materials_ior",
    "KHR_materials_clearcoat"
  ]
}